<svg width="512" height="512" viewBox="0 0 512 512" fill="none" xmlns="http://www.w3.org/2000/svg">
  <defs>
    <linearGradient id="compassGradient" x1="256" y1="40" x2="256" y2="472" gradientUnits="userSpaceOnUse">
      <stop offset="0%" stop-color="#C7E7FF" />
      <stop offset="100%" stop-color="#6FB4F5" />
    </linearGradient>
    <linearGradient id="accentGradient" x1="256" y1="0" x2="256" y2="512" gradientUnits="userSpaceOnUse">
      <stop offset="0%" stop-color="#1B5FA6" />
      <stop offset="100%" stop-color="#0B2F5C" />
    </linearGradient>
    <linearGradient id="textGradient" x1="0" y1="0" x2="512" y2="512" gradientUnits="userSpaceOnUse">
      <stop offset="0%" stop-color="#2B6CB0" />
      <stop offset="100%" stop-color="#092B53" />
    </linearGradient>
  </defs>
  <circle cx="256" cy="256" r="210" stroke="url(#compassGradient)" stroke-width="18" />
  <path d="M256 60L276 136 256 148 236 136 256 60Z" fill="#6FB4F5" />
  <path d="M256 452L236 376 256 364 276 376 256 452Z" fill="#6FB4F5" />
  <path d="M60 256L136 236 148 256 136 276 60 256Z" fill="#6FB4F5" />
  <path d="M452 256L376 276 364 256 376 236 452 256Z" fill="#6FB4F5" />
  <path d="M170 372L340 140" stroke="#8FD0FF" stroke-width="22" stroke-linecap="round" />
  <path d="M308 120L436 168L348 208L380 288L320 240L256 288L288 208L180 168L308 120Z" fill="#1B6FD1" />
  <path d="M168 320C160 320 152 326 150 334L140 370C138 378 144 386 152 386H228C236 386 242 378 240 370L230 334C228 326 220 320 212 320H168Z" fill="#0B2F5C" />
  <path d="M214 320L246 276L178 276L210 320" fill="#0B2F5C" />
  <rect x="96" y="210" width="124" height="18" rx="9" fill="#1B6FD1" />
  <rect x="92" y="198" width="80" height="12" rx="6" fill="#6FB4F5" />
  <rect x="96" y="214" width="24" height="36" rx="10" fill="#0B2F5C" />
  <circle cx="256" cy="256" r="120" fill="url(#accentGradient)" opacity="0.08" />
  <text x="256" y="384" text-anchor="middle" font-size="92" font-weight="700" fill="url(#textGradient)" font-family="'Montserrat', 'Segoe UI', sans-serif" letter-spacing="6">AIR X</text>
  <text x="256" y="440" text-anchor="middle" font-size="48" font-weight="500" fill="#4D9BE8" font-family="'Montserrat', 'Segoe UI', sans-serif">Control</text>
</svg>
